# xmcd
#
# Track frame offsets:
#	150
#	13613
#	26628
#	39106
#	58061
#	74558
#	90946
#	109330
#	123807
#	135593
#	150738
#	171829
#	187667
#	199457
#	218226
#	235776
#	246762
#	261513
#	273576
#	296405
#
# Disc length: 4196 seconds
#
# Revision: 0
# Processed by: cddbd v1.5.1PL2 Copyright (c) Steve Scherf et al.
# Submitted via: audiograbber 1.83.01
#
DISCID=1e106214
DTITLE=Willi Freibier - Locker aus'm Leben (direktion@hit-radio24.de)
DYEAR=2006
DGENRE=Heimatlieder
TTITLE0=Zieh den Mantel aus
TTITLE1=Gebe jeden Tag die Chance....
TTITLE2=In der Bar - Zum schummerlicht
TTITLE3=Ich leg mich doch nicht mit meiner Gattin an
TTITLE4=Klamottenkauf
TTITLE5=Hildchen
TTITLE6=Verwandschaftsstau
TTITLE7=Ihr müsst mal die Kinder kriegen
TTITLE8=Hör mir auf mit Hochzeit
TTITLE9=Seefahrt
TTITLE10=Weidmann Kurt
TTITLE11=Heimatland
TTITLE12=Edeltraud
TTITLE13=Elite der Nation
TTITLE14=Uns kriegen die nicht unter
TTITLE15=Prost
TTITLE16=Nie wieder Alkohol
TTITLE17=Wir zieh'n 'ne Kneipe weiter
TTITLE18=Erntedank in Sonichlang
TTITLE19=Handys
EXTD=direktion@hit-radio24.de
EXTT0=
EXTT1=
EXTT2=
EXTT3=
EXTT4=
EXTT5=
EXTT6=
EXTT7=
EXTT8=
EXTT9=
EXTT10=
EXTT11=
EXTT12=
EXTT13=
EXTT14=
EXTT15=
EXTT16=
EXTT17=
EXTT18=
EXTT19=
PLAYORDER=
